<svg xmlns="http://www.w3.org/2000/svg" viewBox="0 0 393 298"><g id="Layer_2" data-name="Layer 2"><g id="Layer_1-2" data-name="Layer 1"><g id="_ëîé_2" data-name=" ëîé 2"><rect width="393" height="298" fill="#FFF"/></g><g opacity="0.34"><path d="M108.57,101a2.5,2.5,0,0,1-1.25-.34,2.18,2.18,0,0,1-.87-3l.08-.13c.91-1.4,1.87-2.82,2.85-4.19a2.42,2.42,0,0,1,3.27-.59,2.17,2.17,0,0,1,.71,3,.83.83,0,0,1-.08.12c-.94,1.26-1.86,2.66-2.72,4A2.41,2.41,0,0,1,108.57,101Z" fill="#157EFD"/><path d="M117.37,89.28a2.36,2.36,0,0,1-1.51-.51,2.16,2.16,0,0,1-.41-3l.1-.12a106,106,0,0,1,20.66-18.2,2.51,2.51,0,0,1,3.29.54,2.17,2.17,0,0,1-.44,3l-.13.09a100.06,100.06,0,0,0-19.75,17.39A2.37,2.37,0,0,1,117.37,89.28Z" fill="#157EFD"/><path d="M169.2,57.07A2.34,2.34,0,0,1,167,55.45a2.22,2.22,0,0,1,1.51-2.75l.09,0c1.73-.47,3.48-.91,5.22-1.25a2.35,2.35,0,0,1,2.84,1.67A2.21,2.21,0,0,1,175,55.75l-.1,0c-1.65.38-3.34.81-5,1.26A2.64,2.64,0,0,1,169.2,57.07Z" fill="#157EFD"/><path d="M186.07,53.82a2.31,2.31,0,0,1-2.33-2,2.25,2.25,0,0,1,2-2.5h.08A112.25,112.25,0,0,1,207.41,49a2.28,2.28,0,0,1,2.15,2.39v0a2.34,2.34,0,0,1-2.51,2,108,108,0,0,0-20.66.33Z" fill="#157EFD"/><path d="M229.62,57.64a2.42,2.42,0,0,1-.7-.1c-1-.31-2.12-.61-3.17-.89A2.23,2.23,0,0,1,224.08,54l0-.08a2.39,2.39,0,0,1,2.9-1.56c1.11.29,2.22.61,3.33.93A2.22,2.22,0,0,1,231.88,56v0A2.33,2.33,0,0,1,229.62,57.64Z" fill="#157EFD"/><path d="M255.62,69.22a2.53,2.53,0,0,1-1.26-.37,105.55,105.55,0,0,0-15.86-8A2.23,2.23,0,0,1,237.21,58l0-.07a2.42,2.42,0,0,1,3.1-1.25A110.38,110.38,0,0,1,256.92,65a2.18,2.18,0,0,1,.77,3,.41.41,0,0,1-.07.11A2.41,2.41,0,0,1,255.62,69.22Z" fill="#157EFD"/><path d="M274.58,84.11a2.47,2.47,0,0,1-1.71-.69c-.85-.85-1.74-1.7-2.63-2.51a2.17,2.17,0,0,1-.11-3.07l.11-.1a2.42,2.42,0,0,1,3.32,0c.95.85,1.86,1.74,2.76,2.63a2.16,2.16,0,0,1,.05,3.06l-.12.11A2.53,2.53,0,0,1,274.58,84.11Z" fill="#157EFD"/><path d="M294.13,111.56a2.36,2.36,0,0,1-2.14-1.25,97.15,97.15,0,0,0-11.76-18.67,2.16,2.16,0,0,1,.31-3l.13-.1a2.51,2.51,0,0,1,3.3.43,100.69,100.69,0,0,1,12.31,19.53,2.2,2.2,0,0,1-1.06,2.92l-.11,0A2.32,2.32,0,0,1,294.13,111.56Z" fill="#157EFD"/><path d="M302,135.45a2.36,2.36,0,0,1-2.32-1.85c-.29-1.52-.61-3-1-4.56a2.23,2.23,0,0,1,1.66-2.66l.1,0A2.38,2.38,0,0,1,303.3,128c.37,1.57.72,3.18,1,4.76a2.27,2.27,0,0,1-1.86,2.6h0Z" fill="#157EFD"/><path d="M294.11,194.8a2.55,2.55,0,0,1-1-.22,2.18,2.18,0,0,1-1.21-2.84l.06-.12c.59-1.25,1.16-2.51,1.7-3.76a2.42,2.42,0,0,1,3.08-1.26,2.2,2.2,0,0,1,1.29,2.82.49.49,0,0,1,0,.11c-.55,1.25-1.15,2.62-1.78,3.91A2.35,2.35,0,0,1,294.11,194.8Z" fill="#157EFD"/><path d="M269.7,226.78a2.43,2.43,0,0,1-1.73-.72,2.18,2.18,0,0,1,0-3.07l.1-.09a99.49,99.49,0,0,0,19.47-23.18,2.42,2.42,0,0,1,3.21-.83,2.19,2.19,0,0,1,.94,2.94.75.75,0,0,0-.07.12,103.29,103.29,0,0,1-20.4,24.24A2.45,2.45,0,0,1,269.7,226.78Z" fill="#157EFD"/><path d="M234.09,247.26a2.36,2.36,0,0,1-2.21-1.48,2.19,2.19,0,0,1,1.3-2.82l.12,0c1.39-.48,2.81-1,4.21-1.53a2.38,2.38,0,0,1,3.07,1.25,2.2,2.2,0,0,1-1.18,2.89l-.07,0c-1.45.57-2.93,1.11-4.4,1.61A2.36,2.36,0,0,1,234.09,247.26Z" fill="#157EFD"/><path d="M198.37,253.23a112.13,112.13,0,0,1-19.61-1.73,2.25,2.25,0,0,1-1.89-2.57v-.05a2.35,2.35,0,0,1,2.75-1.78,107.34,107.34,0,0,0,39.75-.43,2.37,2.37,0,0,1,2.79,1.73,2.25,2.25,0,0,1-1.77,2.64h0A111.73,111.73,0,0,1,198.37,253.23Z" fill="#157EFD"/><path d="M153,243.39a2.32,2.32,0,0,1-1-.21c-1.61-.73-3.22-1.51-4.77-2.31a2.16,2.16,0,0,1-1-2.89l.07-.15a2.42,2.42,0,0,1,3.19-.9c1.51.77,3,1.51,4.57,2.21a2.19,2.19,0,0,1,1.18,2.85l-.06.14A2.37,2.37,0,0,1,153,243.39Z" fill="#157EFD"/><path d="M136.57,234.14a2.36,2.36,0,0,1-1.38-.42,105,105,0,0,1-24.5-23.46,2.19,2.19,0,0,1,.46-3.06l.1-.07a2.5,2.5,0,0,1,3.28.53A100.18,100.18,0,0,0,138,230.09a2.16,2.16,0,0,1,.63,3,.64.64,0,0,1-.1.13A2.38,2.38,0,0,1,136.57,234.14Z" fill="#157EFD"/><path d="M96.65,178.86a2.35,2.35,0,0,1-2.28-1.67c-.52-1.85-1-3.77-1.4-5.62a2.25,2.25,0,0,1,1.77-2.64h.06a2.35,2.35,0,0,1,2.79,1.74c.39,1.8.84,3.6,1.33,5.37a2.22,2.22,0,0,1-1.57,2.73l-.1,0A2.47,2.47,0,0,1,96.65,178.86Z" fill="#157EFD"/><path d="M93.31,159.67a2.32,2.32,0,0,1-2.35-2.1,97.1,97.1,0,0,1,5-38.15A2.41,2.41,0,0,1,99,118a2.21,2.21,0,0,1,1.54,2.73.29.29,0,0,1,0,.09,92.57,92.57,0,0,0-4.81,36.47,2.3,2.3,0,0,1-2.2,2.39Z" fill="#157EFD"/></g><g opacity="0.34"><path d="M319.73,213a2.6,2.6,0,0,1-1.1-.25,2.18,2.18,0,0,1-1.06-2.9l.06-.12c1-1.85,2-3.77,2.89-5.61a2.41,2.41,0,0,1,3.12-1.11,2.21,2.21,0,0,1,1.19,2.89l0,.09c-.95,1.94-1.95,3.9-3,5.8A2.38,2.38,0,0,1,319.73,213Z" fill="#157EFD"/><path d="M327.52,195.78a2.55,2.55,0,0,1-.78-.13,2.2,2.2,0,0,1-1.47-2.75l0-.1A121.65,121.65,0,0,0,332.4,160a2.32,2.32,0,0,1,2.51-2.07,2.27,2.27,0,0,1,2.19,2.35v0a126.15,126.15,0,0,1-7.36,33.89A2.36,2.36,0,0,1,327.52,195.78Z" fill="#157EFD"/><path d="M330.34,119.2a2.34,2.34,0,0,1-2.27-1.65c-.58-2.06-1.25-4.13-1.91-6.15a2.24,2.24,0,0,1,1.43-2.8l.09,0a2.39,2.39,0,0,1,3,1.45c.72,2.09,1.38,4.24,2,6.36a2.21,2.21,0,0,1-1.57,2.72l-.1,0A2.15,2.15,0,0,1,330.34,119.2Z" fill="#157EFD"/><path d="M322.8,99.17a2.37,2.37,0,0,1-2.16-1.25,125.51,125.51,0,0,0-13.59-22.2,2.16,2.16,0,0,1,.38-3l.13-.1a2.5,2.5,0,0,1,3.3.49,131.44,131.44,0,0,1,14.09,23A2.2,2.2,0,0,1,323.87,99l-.1.05A2.45,2.45,0,0,1,322.8,99.17Z" fill="#157EFD"/><path d="M292.21,58.52a2.35,2.35,0,0,1-1.61-.61c-1.05-.93-2.13-1.86-3.19-2.76a2.17,2.17,0,0,1-.31-3.06l.09-.11a2.52,2.52,0,0,1,3.34-.2c1.11.94,2.22,1.91,3.3,2.88a2.14,2.14,0,0,1,.2,3l-.11.12A2.38,2.38,0,0,1,292.21,58.52Z" fill="#157EFD"/><path d="M278.38,47.63A2.53,2.53,0,0,1,277,47.2a138.37,138.37,0,0,0-20.08-11.46,2.18,2.18,0,0,1-1.16-2.84l.07-.14a2.42,2.42,0,0,1,3.15-1,143,143,0,0,1,20.85,11.86,2.18,2.18,0,0,1,.62,3l-.08.12A2.45,2.45,0,0,1,278.38,47.63Z" fill="#157EFD"/><path d="M232.49,27.06a2.49,2.49,0,0,1-.61-.08c-1.57-.39-3.16-.75-4.75-1.09a2.22,2.22,0,0,1-1.8-2.58s0,0,0-.08a2.37,2.37,0,0,1,2.82-1.71c1.64.34,3.28.73,4.92,1.13a2.23,2.23,0,0,1,1.7,2.64.29.29,0,0,0,0,.09A2.36,2.36,0,0,1,232.49,27.06Z" fill="#157EFD"/><path d="M182.3,23.76a2.33,2.33,0,0,1-2.35-2,2.28,2.28,0,0,1,2-2.51h0a146.11,146.11,0,0,1,31-.13,2.29,2.29,0,0,1,2.11,2.43.22.22,0,0,0,0,.08,2.35,2.35,0,0,1-2.6,2,140.22,140.22,0,0,0-30,.12Z" fill="#157EFD"/><path d="M149,31.53a2.38,2.38,0,0,1-2.2-1.45A2.21,2.21,0,0,1,148,27.2l.15-.05c2.06-.75,4.15-1.46,6.27-2.11a2.41,2.41,0,0,1,3,1.43,2.22,2.22,0,0,1-1.41,2.8.19.19,0,0,1-.1,0c-2,.63-4.05,1.26-6,2A2.5,2.5,0,0,1,149,31.53Z" fill="#157EFD"/><path d="M105.12,57.41a2.45,2.45,0,0,1-1.73-.72,2.17,2.17,0,0,1,0-3.07l.11-.11a139.68,139.68,0,0,1,31.56-20.83,2.43,2.43,0,0,1,3.17,1,2.2,2.2,0,0,1-.93,3l-.11,0a134.43,134.43,0,0,0-30.48,20.09A2.5,2.5,0,0,1,105.12,57.41Z" fill="#157EFD"/><path d="M84.76,79.86a2.52,2.52,0,0,1-1.33-.39,2.17,2.17,0,0,1-.69-3l.08-.12c1.08-1.52,2.21-3,3.36-4.51a2.5,2.5,0,0,1,3.3-.46,2.16,2.16,0,0,1,.58,3l-.09.12c-1.11,1.42-2.21,2.89-3.26,4.36A2.41,2.41,0,0,1,84.76,79.86Z" fill="#157EFD"/><path d="M63.73,127.26a1.93,1.93,0,0,1-.48,0,2.24,2.24,0,0,1-1.84-2.59v0A128.51,128.51,0,0,1,76,87a2.42,2.42,0,0,1,3.21-1,2.17,2.17,0,0,1,1,2.9l-.07.14a123.77,123.77,0,0,0-14.11,36.39A2.34,2.34,0,0,1,63.73,127.26Z" fill="#157EFD"/><path d="M63.72,178.73a2.31,2.31,0,0,1-2.31-1.79c-.4-1.88-.77-3.77-1.08-5.71a2.27,2.27,0,0,1,2-2.51A2.34,2.34,0,0,1,65,170.59c.31,1.83.66,3.69,1,5.51a2.25,2.25,0,0,1-1.84,2.59h0Z" fill="#157EFD"/><path d="M95.71,239.7A2.39,2.39,0,0,1,94,239a130,130,0,0,1-27.36-44A2.23,2.23,0,0,1,68,192.06l.08,0a2.41,2.41,0,0,1,3,1.36A125.51,125.51,0,0,0,97.4,236a2.14,2.14,0,0,1,0,3l-.15.13A2.42,2.42,0,0,1,95.71,239.7Z" fill="#157EFD"/><path d="M128.73,265.39a2.45,2.45,0,0,1-1.19-.3c-2-1.1-4-2.28-5.9-3.47a2.18,2.18,0,0,1-.76-3l.08-.12a2.42,2.42,0,0,1,3.26-.66c1.87,1.17,3.77,2.3,5.7,3.37a2.18,2.18,0,0,1,.92,2.93l-.08.13A2.36,2.36,0,0,1,128.73,265.39Z" fill="#157EFD"/><path d="M187.86,283h-.19a144.83,144.83,0,0,1-43.77-10,2.2,2.2,0,0,1-1.3-2.82l.05-.12a2.42,2.42,0,0,1,3.09-1.26A139.75,139.75,0,0,0,188,278.45a2.29,2.29,0,0,1,2.18,2.4h0A2.32,2.32,0,0,1,187.86,283Z" fill="#157EFD"/><path d="M236.51,278.06a2.31,2.31,0,0,1-2.25-1.61,2.22,2.22,0,0,1,1.52-2.76l.08,0c2.42-.67,4.86-1.42,7.23-2.21a2.38,2.38,0,0,1,3,1.35,2.2,2.2,0,0,1-1.33,2.83l-.1,0c-2.51.83-5,1.61-7.53,2.3A2.18,2.18,0,0,1,236.51,278.06Z" fill="#157EFD"/><path d="M261.21,268.66a2.36,2.36,0,0,1-2.09-1.26,2.15,2.15,0,0,1,.87-2.94l.13-.07a132.81,132.81,0,0,0,39.72-29.83,2.51,2.51,0,0,1,3.33-.23,2.16,2.16,0,0,1,.33,3l-.09.11a137.29,137.29,0,0,1-41.12,30.88A2.52,2.52,0,0,1,261.21,268.66Z" fill="#157EFD"/></g><path d="M289.15,26a2.25,2.25,0,1,1-.33-4.48,1.82,1.82,0,0,1,.33,0h13.42a2.33,2.33,0,0,1,2.36,2.23,2.3,2.3,0,0,1-2.3,2.16H289.21Z" fill="#157EFD"/><path d="M295.89,32.33a2.31,2.31,0,0,1-2.36-2.24l-.06-12.75a2.31,2.31,0,0,1,2.35-2.24h0a2.3,2.3,0,0,1,2.36,2.23h0l.06,12.74A2.32,2.32,0,0,1,295.89,32.33Z" fill="#157EFD"/><path d="M48.91,119.38a2.84,2.84,0,0,0-2.81,2.89h0A2.87,2.87,0,0,0,49.17,125a2.8,2.8,0,0,0,.2-5.59A2.33,2.33,0,0,0,48.91,119.38Z" fill="#157EFD"/><path d="M98.23,288.58c-4.77,0-8.65-3.53-8.65-7.86s3.88-7.84,8.65-7.84,8.61,3.52,8.61,7.79S103,288.58,98.23,288.58Zm0-12a4.16,4.16,0,1,0,4.71,4.12,4.45,4.45,0,0,0-4.71-4.12Z" fill="#157EFD"/><rect x="118.71" y="44.45" width="160.95" height="207.15" fill="#fff"/><path d="M279.66,253.84h-161a2.31,2.31,0,0,1-2.36-2.24h0V44.52a2.3,2.3,0,0,1,2.29-2.31h161A2.29,2.29,0,0,1,282,44.44h0V251.6a2.3,2.3,0,0,1-2.35,2.24Zm-158.59-4.48H277.3V46.69H121.07Z" fill="#4492d4"/><rect x="123.42" y="44.45" width="151.52" height="207.15" fill="#dee4f2"/><rect x="119.18" y="44.45" width="4.72" height="207.15" fill="#FFF"/><rect x="274.47" y="44.45" width="4.72" height="207.15" fill="#dee4f2"/><path d="M279.66,253.84h-161a2.31,2.31,0,0,1-2.36-2.24h0V44.52a2.3,2.3,0,0,1,2.29-2.31h161A2.29,2.29,0,0,1,282,44.44h0V251.6a2.3,2.3,0,0,1-2.35,2.24Zm-158.59-4.48H277.3V46.69H121.07Z" fill="#157EFD"/><rect x="131.28" y="58.71" width="135.81" height="178.61" fill="#FFF"/><path d="M267.09,239.57H131.28a2.3,2.3,0,0,1-2.36-2.24h0V58.71a2.29,2.29,0,0,1,2.36-2.23H267.09a2.29,2.29,0,0,1,2.36,2.23h0V237.33a2.31,2.31,0,0,1-2.36,2.24Zm-133.45-4.48H264.73V61H133.64Z" fill="#157EFD"/><path d="M238.36,50.53h0c0-8.79-7.47-15.83-16.67-15.83h-45c-9.2,0-16.65,7.08-16.65,15.83h0c0,8.78,7.45,15.82,16.65,15.82h45C230.89,66.35,238.36,59.28,238.36,50.53Z" fill="#dee4f2"/><path d="M241.13,50.53h0c0-8.79-7.45-15.83-16.65-15.83H219.8c9.2,0,16.65,7.08,16.65,15.83h0c0,8.78-7.45,15.82-16.65,15.82h4.72C233.73,66.35,241.13,59.28,241.13,50.53Z" fill="#dee4f2"/><path d="M161.9,50.53h0c0-8.79,7.47-15.83,16.67-15.83h-4.72c-9.2,0-16.67,7.08-16.67,15.83h0c0,8.78,7.47,15.82,16.67,15.82h4.72C169.37,66.35,161.9,59.28,161.9,50.53Z" fill="#FFF"/><path d="M226.41,68.56H172c-10.5,0-19-8.11-19-18.07s8.53-18.07,19-18.07h54.44c10.48,0,19,8.1,19,18.07S236.89,68.56,226.41,68.56ZM172,36.93c-7.9,0-14.31,6.1-14.31,13.6S164.07,64.12,172,64.12h54.44c7.88,0,14.31-6.1,14.31-13.59s-6.43-13.6-14.31-13.6Z" fill="#157EFD"/><path d="M223.3,52.76H175.07a2.25,2.25,0,1,1-.34-4.48H223.3a2.25,2.25,0,1,1,.33,4.48,1.82,1.82,0,0,1-.33,0Z" fill="#157EFD"/><path d="M160.39,211.77h0a1.68,1.68,0,0,1-1.16-.47l-5.1-4.83a1.54,1.54,0,0,1-.06-2.17l.06-.05a1.7,1.7,0,0,1,2.34,0l3.92,3.76,13.28-12.69a1.72,1.72,0,0,1,2.34,0,1.51,1.51,0,0,1,.08,2.13l-.08.08L161.56,211.3A1.68,1.68,0,0,1,160.39,211.77Z" fill="#157EFD"/><path d="M160.39,180.39a1.68,1.68,0,0,1-1.16-.47l-5.1-4.84a1.51,1.51,0,0,1-.08-2.13l.08-.08a1.72,1.72,0,0,1,2.34,0l3.92,3.77L173.67,164a1.72,1.72,0,0,1,2.34,0,1.52,1.52,0,0,1,.05,2.16l-.05.06-14.45,13.75A1.75,1.75,0,0,1,160.39,180.39Z" fill="#157EFD"/><path d="M160.39,149h0a1.7,1.7,0,0,1-1.16-.45l-5.1-4.85a1.53,1.53,0,0,1-.06-2.16l.06-.06a1.75,1.75,0,0,1,2.34,0l3.92,3.77,13.28-12.68a1.72,1.72,0,0,1,2.34,0,1.53,1.53,0,0,1,.05,2.17l-.05,0-14.45,13.76A1.73,1.73,0,0,1,160.39,149Z" fill="#157EFD"/><path d="M160.39,117.62a1.62,1.62,0,0,1-1.16-.46l-5.1-4.83a1.54,1.54,0,0,1-.06-2.17l.06,0a1.7,1.7,0,0,1,2.34,0l3.92,3.76,13.28-12.55a1.7,1.7,0,0,1,2.34,0,1.51,1.51,0,0,1,.08,2.13l-.08.08-14.45,13.63A1.63,1.63,0,0,1,160.39,117.62Z" fill="#157EFD"/><path d="M237.78,106.84H192.1a1.57,1.57,0,1,1,0-3.14h45.68a1.57,1.57,0,0,1,0,3.14Z" fill="#157EFD"/><g opacity="0.8"><path d="M220.45,114.23H192.1a1.13,1.13,0,0,1-.24-2.24h28.59a1.13,1.13,0,1,1,.24,2.24Z" fill="#157EFD"/></g><path d="M237.72,138.22H192a1.57,1.57,0,0,1,0-3.14h45.69a1.57,1.57,0,0,1,0,3.14Z" fill="#157EFD"/><g opacity="0.8"><path d="M220.37,145.61H192a1.12,1.12,0,0,1-1.24-1,1.15,1.15,0,0,1,1-1.25h28.57a1.15,1.15,0,0,1,1.25,1,1.13,1.13,0,0,1-1,1.24Z" fill="#157EFD"/></g><path d="M237.72,169.6H192a1.57,1.57,0,0,1,0-3.14h45.69a1.57,1.57,0,0,1,0,3.14Z" fill="#157EFD"/><g opacity="0.8"><path d="M220.37,177H192a1.12,1.12,0,0,1,0-2.24h28.34a1.12,1.12,0,0,1,0,2.24Z" fill="#157EFD"/></g><path d="M237.72,200.34H192a1.57,1.57,0,1,1-.28-3.12h46a1.57,1.57,0,1,1,.28,3.12Z" fill="#157EFD"/><g opacity="0.8"><path d="M220.37,207.72H192a1.13,1.13,0,1,1-.23-2.24h28.57a1.13,1.13,0,1,1,.24,2.24Z" fill="#157EFD"/></g><path d="M238.41,86.59H160a2.25,2.25,0,0,1-.34-4.49h78.79a2.25,2.25,0,0,1,.34,4.49Z" fill="#157EFD"/><path d="M74.06,53.69a23.16,23.16,0,0,0,2.36.11,16.88,16.88,0,0,0,2.36-.11c-.79-.08-1.58-.19-2.36-.34A23.52,23.52,0,0,1,74.06,53.69Z" fill="#9ac3ed"/><path d="M346.81,237.51c-.62-.06-1.19-.12-1.8-.12a11.86,11.86,0,0,0-1.8.09,15.93,15.93,0,0,1,1.8.26C345.6,237.65,346.19,237.56,346.81,237.51Z" fill="#9ac3ed"/><g opacity="0.51"><path d="M362.76,254.29c0-8.75-7-15.93-15.95-16.78a15.3,15.3,0,0,0-1.8.26c8.08,1.58,14.15,8.37,14.15,16.52S353.09,269.22,345,270.8a17.72,17.72,0,0,0,1.8.26C355.77,270.21,362.76,263,362.76,254.29Z" fill="#157EFD"/></g><path d="M330.87,254.29c0-8.15,6.07-14.94,14.15-16.52a15.93,15.93,0,0,0-1.8-.26c-9,.85-16,8-16,16.78s7,15.92,16,16.77a15.93,15.93,0,0,0,1.8-.26C336.93,269.22,330.87,262.43,330.87,254.29Z" fill="#fff"/><ellipse cx="345.01" cy="254.29" rx="14.15" ry="16.51" fill="#dee4f2"/><path d="M345,272.83c-10.78,0-19.55-8.33-19.55-18.57s8.77-18.58,19.55-18.58,19.55,8.33,19.55,18.58S355.77,272.83,345,272.83Zm0-33.73c-8.8,0-15.95,6.8-15.95,15.16s7.15,15.15,15.95,15.15S361,262.61,361,254.26,353.8,239.13,345,239.13Z" fill="#157EFD"/><path d="M345,257.61a1.79,1.79,0,0,1-1-.25l-4.41-2.54a1.68,1.68,0,0,1-.63-2.29.25.25,0,0,1,0-.07,1.86,1.86,0,0,1,2.47-.57l3.32,1.92,5.64-4.29a1.92,1.92,0,0,1,2.54.26,1.68,1.68,0,0,1-.21,2.35l-.07.05-6.63,5.05A1.9,1.9,0,0,1,345,257.61Z" fill="#157EFD"/><path d="M345,229.16a1.74,1.74,0,0,1-1.8-1.7h0v-4.73a1.8,1.8,0,1,1,3.6,0h0v4.73a1.75,1.75,0,0,1-1.8,1.7Z" fill="#157EFD"/><path d="M325.87,236.69a1.81,1.81,0,0,1-1.28-.5l-3.51-3.34a1.66,1.66,0,0,1-.1-2.33l.1-.09a1.92,1.92,0,0,1,2.54,0l3.52,3.35a1.65,1.65,0,0,1,.09,2.33l-.09.08A1.77,1.77,0,0,1,325.87,236.69Z" fill="#157EFD"/><path d="M318,254.86h-5a1.71,1.71,0,0,1-.25-3.42H318a1.71,1.71,0,0,1,.25,3.42Z" fill="#157EFD"/><path d="M322.36,276.37a1.83,1.83,0,0,1-1.27-.51,1.65,1.65,0,0,1-.09-2.33l.09-.08,3.52-3.35a1.93,1.93,0,0,1,2.55,0,1.65,1.65,0,0,1,.09,2.33l-.09.09-3.52,3.34A1.85,1.85,0,0,1,322.36,276.37Z" fill="#157EFD"/><path d="M345,285.29a1.76,1.76,0,0,1-1.8-1.72v-4.75a1.8,1.8,0,1,1,3.6,0h0v4.73a1.76,1.76,0,0,1-1.77,1.74Z" fill="#157EFD"/><path d="M367.63,276.35a1.86,1.86,0,0,1-1.27-.5l-3.52-3.34a1.65,1.65,0,0,1-.09-2.33l.09-.09a1.84,1.84,0,0,1,2.54,0l3.53,3.34a1.65,1.65,0,0,1,.06,2.35l-.06.07A1.89,1.89,0,0,1,367.63,276.35Z" fill="#157EFD"/><path d="M377,254.84h-4.94a1.71,1.71,0,1,1-.26-3.41,1.13,1.13,0,0,1,.26,0h5a1.71,1.71,0,1,1,.26,3.41H377Z" fill="#157EFD"/><path d="M364.1,236.68a1.81,1.81,0,0,1-1.28-.5,1.65,1.65,0,0,1-.06-2.35l.06-.07,3.49-3.34a1.86,1.86,0,0,1,2.54,0,1.63,1.63,0,0,1,.1,2.31.94.94,0,0,1-.1.1l-3.5,3.35A1.83,1.83,0,0,1,364.1,236.68Z" fill="#157EFD"/><path d="M345,229.16a1.74,1.74,0,0,1-1.8-1.7h0v-4.73a1.8,1.8,0,1,1,3.6,0h0v4.73a1.75,1.75,0,0,1-1.8,1.7Z" fill="#157EFD"/></g></g></svg>